<?xml version="1.0" standalone="no"?>
<!DOCTYPE svg PUBLIC "-//W3C//DTD SVG 20010904//EN"
 "http://www.w3.org/TR/2001/REC-SVG-20010904/DTD/svg10.dtd">
<svg version="1.0" xmlns="http://www.w3.org/2000/svg"
 width="640.000000pt" height="1280.000000pt" viewBox="0 0 640.000000 1280.000000"
 preserveAspectRatio="xMidYMid meet">
<metadata>
Created by potrace 1.15, written by Peter Selinger 2001-2017
</metadata>
<g transform="translate(0.000000,1280.000000) scale(0.100000,-0.100000)"
fill="#000000" stroke="none">
<path d="M3003 12793 c-7 -2 -13 -18 -13 -34 0 -42 -39 -79 -84 -79 -40 0 -66
21 -66 55 0 35 -16 39 -56 14 -87 -54 -97 -134 -31 -262 41 -79 42 -86 31
-118 -25 -69 -17 -184 26 -359 88 -357 154 -1083 210 -2305 20 -429 49 -1060
51 -1080 1 -25 18 34 18 67 2 86 37 118 98 93 40 -17 88 -57 104 -88 15 -26
28 -118 22 -148 -5 -25 -7 -26 -102 -32 -339 -21 -655 -159 -881 -386 -180
-181 -286 -383 -346 -661 -24 -107 -27 -483 -6 -595 44 -230 118 -397 339
-768 69 -116 130 -221 135 -233 14 -30 -11 -91 -187 -479 -172 -378 -202 -453
-232 -593 -40 -189 -65 -252 -141 -365 -89 -131 -95 -144 -123 -252 -19 -74
-23 -116 -23 -235 0 -165 15 -262 70 -428 96 -293 246 -519 452 -679 74 -58
270 -184 304 -195 8 -3 7 -36 -5 -129 -70 -521 -69 -1217 4 -1849 26 -226 65
-381 136 -543 28 -62 40 -70 48 -32 3 14 7 36 10 50 13 61 70 43 154 -47 36
-39 80 -77 98 -84 38 -16 83 -18 83 -4 0 37 -47 537 -80 848 -67 623 -74 740
-75 1142 0 239 4 403 13 475 21 175 14 161 80 168 31 4 107 18 167 33 81 20
138 27 218 28 l109 2 153 117 c397 304 514 449 581 722 67 273 28 582 -114
900 -64 145 -122 247 -248 437 l-104 157 136 213 c324 505 433 695 531 923
211 489 246 915 111 1319 -121 362 -403 679 -799 899 -64 36 -69 37 -172 37
-161 0 -185 17 -160 113 25 98 26 197 4 443 -11 131 -30 482 -41 779 -38 1032
-64 1462 -115 1897 -18 156 -32 222 -86 408 l-42 145 -2 205 c-3 245 -10 279
-71 338 -42 39 -62 47 -91 35z m-28 -257 l60 -33 12 -136 c12 -140 30 -252 63
-391 11 -44 18 -82 15 -84 -2 -2 -30 4 -62 13 -71 21 -132 79 -157 151 -10 29
-21 111 -28 199 -9 138 -26 258 -43 312 -7 20 -5 21 37 12 23 -6 70 -25 103
-43z m95 -700 c0 -13 20 -63 46 -110 36 -70 45 -95 42 -129 -3 -39 -5 -42 -33
-45 -16 -1 -61 6 -100 16 l-70 18 -17 69 c-21 90 -22 155 -2 183 13 19 24 22
75 22 56 0 59 -1 59 -24z m-5 -394 c63 -34 108 -127 107 -223 0 -79 -4 -89
-39 -89 -64 0 -130 60 -154 141 -11 39 -14 146 -5 176 6 18 12 20 39 13 18 -4
41 -12 52 -18z m72 -384 c38 -50 77 -207 64 -257 -10 -37 -51 -49 -104 -31
-64 23 -87 75 -87 202 l0 98 59 0 c35 0 62 -5 68 -12z m17 -402 c66 -43 109
-182 87 -281 -7 -31 -19 -59 -26 -61 -27 -11 -94 17 -123 50 -37 43 -52 107
-52 228 l0 91 45 -5 c25 -3 56 -13 69 -22z m33 -396 c45 -27 69 -81 92 -207
11 -60 23 -121 26 -136 6 -22 3 -27 -19 -33 -71 -17 -148 26 -189 106 -26 49
-28 63 -25 130 3 56 11 87 28 118 27 47 41 51 87 22z m-40 -441 c15 -5 52 -26
81 -46 50 -35 52 -38 52 -83 0 -25 7 -67 16 -92 8 -26 14 -60 12 -76 l-3 -29
-54 13 c-105 27 -163 92 -169 189 -4 62 11 135 28 135 5 0 21 -5 37 -11z m71
-400 l62 -21 0 -78 c0 -125 -18 -147 -97 -115 -56 23 -77 58 -81 137 -3 37 -2
75 2 83 7 21 41 19 114 -6z m-13 -279 c30 -15 49 -34 68 -68 28 -51 72 -226
61 -244 -7 -11 -80 -4 -153 15 -36 10 -47 18 -59 47 -23 54 -28 187 -9 233 18
43 33 46 92 17z m160 -729 c23 -5 31 -12 33 -31 4 -32 -33 -87 -77 -117 -34
-23 -60 -32 -223 -76 l-88 -24 0 36 c0 92 55 177 133 205 43 15 167 19 222 7z
m-491 -152 c-39 -78 -87 -157 -105 -176 -31 -32 -96 -73 -116 -73 -5 0 -6 37
-2 83 6 88 28 151 72 202 36 43 148 98 213 104 6 1 -22 -62 -62 -140z m904 45
l53 -24 -18 -31 c-23 -41 -92 -85 -154 -98 -63 -14 -203 -14 -251 -1 -36 10
-37 12 -26 38 32 76 94 122 189 141 63 13 145 3 207 -25z m-1240 -228 c-4 -67
-27 -119 -111 -253 -32 -51 -58 -82 -67 -80 -8 1 -22 22 -31 46 -9 24 -23 50
-33 56 -14 11 -15 19 -6 63 13 58 48 110 140 210 l65 70 24 -26 c20 -22 23
-33 19 -86z m1507 -14 c19 -54 43 -105 59 -121 l27 -29 -48 -23 c-56 -27 -139
-31 -193 -9 -29 12 -167 86 -178 95 -8 7 40 83 71 114 43 41 126 72 186 68
l44 -2 32 -93z m-469 -97 c218 -100 401 -269 493 -454 83 -166 111 -285 118
-514 6 -188 -2 -266 -47 -423 -54 -189 -116 -318 -330 -694 -134 -234 -198
-358 -230 -447 l-23 -63 -31 22 c-53 37 -207 197 -316 328 -57 69 -139 161
-182 206 l-79 81 22 49 c36 83 128 362 169 509 107 389 190 864 220 1253 8 92
18 161 28 183 l17 37 50 -20 c27 -11 82 -34 121 -53z m-629 -142 c-8 -268 -35
-424 -160 -928 -42 -165 -83 -335 -92 -377 -9 -43 -21 -78 -25 -78 -13 0 -70
70 -115 140 -113 177 -163 392 -152 645 15 323 149 590 355 711 41 24 162 72
186 73 5 1 6 -81 3 -186z m197 83 c59 -24 85 -73 101 -188 l7 -48 -36 0 c-20
0 -53 7 -73 15 -54 23 -69 19 -35 -10 38 -32 70 -107 93 -220 24 -114 24 -114
-5 -125 -39 -14 -58 -54 -68 -143 -22 -182 -43 -237 -93 -237 -31 0 -81 43
-106 93 -62 121 -13 272 96 293 l34 6 -19 27 c-42 57 -52 216 -25 396 24 161
22 155 61 155 19 0 49 -6 68 -14z m-925 -138 c28 -29 47 -94 65 -218 9 -58 18
-114 22 -126 4 -15 -1 -23 -20 -32 -52 -23 -60 -51 -53 -182 4 -73 3 -130 -3
-146 -9 -23 -14 -26 -42 -20 -46 9 -98 53 -119 102 -42 95 -33 187 25 252 31
36 32 38 20 77 -27 87 -11 198 40 276 30 45 38 47 65 17z m2027 -34 c27 -16
65 -53 85 -82 37 -53 106 -208 96 -218 -10 -10 -144 19 -197 44 -30 14 -75 46
-101 72 -41 41 -97 138 -114 199 l-7 23 95 -4 c84 -3 100 -7 143 -34z m68
-406 c94 -28 179 -161 162 -253 l-7 -38 -46 7 c-25 3 -67 18 -95 33 -69 38
-100 92 -106 189 l-5 74 28 0 c15 0 46 -6 69 -12z m-2082 -416 c41 -38 68 -75
92 -126 57 -117 57 -116 -6 -116 -43 0 -65 7 -108 33 -90 53 -140 144 -140
254 l0 52 52 -22 c28 -11 77 -45 110 -75z m2218 61 c21 -26 22 -35 15 -148 -5
-96 -3 -129 9 -164 9 -24 16 -45 16 -47 0 -5 -56 14 -91 31 -19 9 -60 34 -92
54 l-57 36 2 105 3 105 45 2 c65 3 88 11 95 33 9 28 30 25 55 -7z m-1505 -29
c76 -51 108 -110 107 -199 0 -52 -22 -134 -41 -157 -15 -18 -81 14 -119 57
-61 70 -79 165 -47 255 28 78 41 84 100 44z m-79 -353 c18 -11 42 -40 55 -68
20 -40 24 -63 24 -138 0 -49 -6 -107 -14 -127 -12 -35 -15 -38 -53 -38 -149 0
-201 159 -112 339 29 57 48 64 100 32z m1428 -30 c33 -27 72 -60 85 -74 l23
-26 -65 -133 c-69 -140 -123 -286 -133 -362 -9 -60 -27 -60 -121 1 l-72 46 5
46 c10 77 33 165 53 191 9 14 33 33 52 44 l34 18 0 82 c1 70 5 90 32 149 18
37 35 67 38 67 4 0 35 -22 69 -49z m-1884 6 c0 -4 18 -35 40 -69 43 -67 59
-135 41 -174 -9 -21 -17 -24 -60 -24 -86 0 -138 32 -188 117 -20 34 -52 128
-53 153 0 3 50 5 110 5 61 1 110 -3 110 -8z m254 -213 c3 -9 6 -29 6 -45 0
-23 6 -32 27 -40 46 -17 92 -58 116 -102 19 -35 22 -58 22 -142 0 -100 -23
-195 -46 -195 -19 0 -84 38 -106 62 -58 61 -71 135 -65 371 2 97 4 107 21 107
10 0 22 -7 25 -16z m-207 -121 c77 -36 114 -157 67 -220 -11 -15 -25 -28 -31
-30 -6 -2 -31 22 -57 54 -43 54 -73 117 -90 186 -6 26 -5 27 35 27 22 0 57 -7
76 -17z m1555 -330 c82 -78 46 -252 -64 -309 -25 -13 -32 -13 -58 1 -16 8 -37
27 -47 41 -14 22 -15 34 -6 79 7 30 25 84 41 122 16 37 32 76 36 87 9 26 61
15 98 -21z m-1382 -30 c48 -59 65 -131 51 -217 -15 -90 -31 -136 -48 -136 -25
0 -79 27 -125 62 l-45 35 22 91 c13 49 29 101 35 114 19 36 60 88 70 88 5 0
23 -17 40 -37z m342 -147 c-6 -48 33 -86 143 -140 50 -24 105 -58 122 -76 31
-32 53 -93 39 -108 -4 -3 -26 0 -49 8 -37 14 -76 53 -90 93 -3 8 -13 4 -31
-12 -38 -35 -82 -33 -148 9 -52 33 -128 75 -149 82 -6 2 -2 25 12 61 27 71 76
117 122 117 32 0 33 -2 29 -34z m826 -143 c32 -46 34 -82 12 -178 -13 -52 -19
-102 -16 -121 8 -41 -10 -49 -67 -28 -23 9 -58 19 -77 23 -29 5 -36 11 -38 35
-6 51 18 119 69 197 27 41 49 81 49 87 0 24 48 12 68 -15z m-1303 -57 c13 -13
27 -40 31 -60 8 -47 0 -185 -16 -253 l-12 -53 -42 0 c-42 0 -57 7 -148 72
l-28 19 75 150 c82 162 93 172 140 125z m390 -51 c67 -43 134 -118 233 -263
46 -66 102 -141 124 -166 l40 -46 -23 -67 c-40 -124 -125 -335 -239 -593 -181
-413 -244 -579 -300 -800 -31 -122 -70 -333 -70 -381 0 -34 0 -35 -42 -9 -21
12 -51 20 -80 20 -41 0 -55 -6 -113 -51 -37 -28 -81 -53 -100 -56 -29 -5 -35
-2 -49 25 -29 56 -17 105 46 183 l28 35 -30 74 c-91 221 -119 460 -84 712 44
321 127 546 392 1075 198 395 174 368 267 308z m375 -162 c139 -45 297 -168
321 -251 18 -60 8 -67 -80 -54 -39 6 -95 22 -125 35 -105 48 -196 159 -212
256 l-7 42 29 -7 c16 -3 49 -13 74 -21z m-940 -211 c57 -59 65 -92 39 -151
-10 -24 -19 -56 -19 -72 0 -24 -4 -29 -25 -29 -110 0 -164 164 -90 276 23 35
43 30 95 -24z m1292 -193 c69 -23 136 -65 168 -106 27 -34 53 -94 44 -102 -3
-3 -40 -6 -82 -5 -82 0 -141 20 -215 71 -41 29 -87 97 -87 131 0 36 83 41 172
11z m-1422 -105 c37 -32 55 -65 65 -120 19 -120 -74 -207 -151 -140 -24 20
-28 32 -32 88 -4 68 11 162 30 185 17 21 54 15 88 -13z m1603 -220 c54 -25
117 -62 139 -82 48 -43 86 -118 69 -135 -19 -19 -121 -13 -173 10 -90 41 -185
162 -204 262 l-7 33 39 -21 c21 -11 83 -41 137 -67z m-453 -94 l0 -150 -27
-11 c-67 -25 -86 -64 -109 -216 -9 -59 -22 -122 -29 -140 -13 -30 -16 -31 -46
-23 -68 20 -109 83 -109 168 0 92 43 177 105 206 35 17 35 18 35 81 0 121 31
204 84 225 11 5 38 9 59 9 l37 1 0 -150z m287 -4 c61 -90 116 -227 145 -358
29 -130 31 -379 5 -495 -38 -166 -101 -304 -156 -338 -17 -11 -82 -55 -144
-98 -161 -112 -229 -142 -370 -161 l-38 -5 7 52 c38 314 111 558 337 1127 58
146 113 288 123 317 22 62 24 61 91 -41z m-1559 7 c31 -19 52 -72 52 -130 0
-49 -22 -157 -41 -205 l-11 -28 -46 41 c-26 22 -59 48 -74 57 -16 9 -28 20
-28 25 0 22 44 177 62 220 22 51 33 54 86 20z m1889 -219 c35 -22 55 -44 75
-84 28 -57 103 -299 94 -307 -9 -9 -26 9 -47 48 -21 41 -44 58 -59 43 -5 -5 4
-71 21 -149 29 -138 41 -286 26 -301 -4 -5 -27 -2 -50 6 -84 30 -111 107 -132
375 -20 248 -27 280 -83 399 -3 5 21 7 51 4 39 -3 71 -14 104 -34z m-2029
-138 c35 -18 75 -62 97 -104 20 -40 45 -152 45 -204 0 -38 0 -38 -40 -38 -129
0 -202 145 -159 316 12 48 17 51 57 30z m1105 -208 l66 -43 1 -70 c0 -38 -7
-105 -15 -148 -8 -43 -15 -81 -15 -83 0 -2 -20 -4 -45 -4 -55 0 -105 39 -125
99 -27 84 10 291 53 291 7 0 44 -19 80 -42z m-1082 -213 c88 -100 129 -171
129 -224 0 -53 -11 -65 -53 -57 -51 10 -111 57 -135 108 -32 68 -55 274 -30
266 5 -2 45 -44 89 -93z m910 -121 c8 -9 23 -35 34 -58 17 -34 26 -42 53 -44
29 -3 32 -6 26 -25 -18 -56 -24 -99 -24 -184 l0 -93 -29 0 c-41 0 -93 39 -119
90 -21 40 -23 56 -20 140 3 69 10 108 25 143 24 51 33 56 54 31z m1026 -76
c63 -70 59 -113 -30 -323 l-26 -60 -52 -8 c-67 -10 -96 -28 -155 -102 -51 -63
-86 -95 -115 -107 -14 -5 -20 1 -29 28 -10 30 -8 48 15 127 15 51 29 97 30
103 2 6 27 16 57 23 43 11 60 11 77 1 19 -10 25 -9 37 7 25 31 53 90 80 166
31 86 71 167 82 167 5 0 18 -10 29 -22z m-1071 -340 c54 -59 83 -154 84 -273
0 -94 -7 -115 -36 -115 -58 0 -121 46 -156 115 -26 50 -35 149 -18 201 16 51
56 104 79 104 9 0 31 -15 47 -32z m589 -137 c8 -39 -11 -108 -41 -148 -15 -19
-54 -47 -97 -67 -62 -30 -74 -33 -86 -21 -24 24 -14 84 26 154 33 58 43 67 73
71 19 3 51 13 70 23 47 22 47 22 55 -12z m-785 -28 c-1 -63 -30 -128 -69 -147
-40 -21 -117 -21 -125 0 -31 81 64 192 167 194 26 0 27 -2 27 -47z m128 -250
c109 -297 112 -307 92 -328 -52 -55 -63 -169 -35 -340 8 -49 18 -105 21 -122
4 -27 2 -33 -13 -33 -70 0 -148 52 -186 124 -17 32 -22 58 -22 121 0 88 14
126 67 181 l29 31 -30 44 c-55 78 -69 189 -39 307 l11 42 47 0 c43 0 49 -3 58
-27z m-73 -902 c119 -54 186 -230 133 -347 -14 -30 -20 -30 -66 1 -20 13 -51
27 -69 31 -27 5 -33 12 -43 53 -7 25 -14 99 -17 164 -7 131 -7 130 62 98z m24
-445 c66 -35 116 -123 140 -251 7 -33 14 -71 17 -83 5 -23 3 -24 -43 -19 -26
3 -69 11 -96 19 -41 11 -50 18 -68 55 -30 63 -53 265 -32 286 11 12 53 8 82
-7z m119 -508 c13 -35 34 -92 47 -128 15 -38 25 -87 25 -119 l0 -54 -50 5
c-127 12 -197 132 -176 302 l7 56 62 0 62 0 23 -62z m67 -374 c21 -22 14 -38
-18 -42 -29 -4 -73 30 -62 47 10 17 61 13 80 -5z m-112 -28 c102 -66 178 -168
201 -270 l7 -29 -50 6 c-93 11 -167 62 -206 143 -23 46 -34 184 -16 184 7 0
35 -15 64 -34z"/>
</g>
</svg>
